<?xml version="1.0" standalone="no"?>
<!DOCTYPE svg PUBLIC "-//W3C//DTD SVG 20010904//EN"
 "http://www.w3.org/TR/2001/REC-SVG-20010904/DTD/svg10.dtd">
<svg version="1.0" xmlns="http://www.w3.org/2000/svg"
 width="433.000000pt" height="195.000000pt" viewBox="0 0 433.000000 195.000000"
 preserveAspectRatio="xMidYMid meet">
<g transform="translate(0.000000,195.000000) scale(0.100000,-0.100000)"
fill="#000000" stroke="none">
<path d="M1061 1937 c-7 -9 -11 -230 -13 -733 l-3 -720 -38 -76 c-112 -227
-376 -313 -601 -194 -166 87 -259 274 -227 455 17 96 60 177 124 239 95 89
207 129 336 119 72 -6 104 -18 82 -31 -15 -9 -14 -59 1 -74 8 -8 49 -12 120
-12 96 0 108 2 118 19 14 28 13 214 -2 229 -16 16 -49 15 -75 -3 -20 -14 -29
-13 -100 12 -66 22 -95 26 -193 27 -100 0 -125 -4 -193 -27 -195 -68 -337
-220 -382 -408 -19 -82 -19 -86 4 -65 10 9 22 37 26 61 9 65 67 174 124 233
154 161 389 218 605 148 84 -28 89 -28 116 -13 48 29 51 25 48 -80 l-3 -98
-99 -3 -99 -3 7 39 c8 55 -13 71 -100 79 -88 7 -166 -9 -252 -52 -172 -86
-276 -290 -244 -478 24 -140 124 -279 247 -343 84 -44 151 -58 257 -52 73 5
100 11 153 37 100 50 177 127 228 229 l42 85 3 721 c2 503 6 724 13 733 9 10
8 13 -4 13 -8 0 -19 -6 -26 -13z"/>
<path d="M1178 1000 l2 -950 -55 0 -55 0 0 94 c0 127 -9 133 -86 54 -74 -75
-159 -132 -224 -149 -28 -7 -58 -21 -67 -31 -21 -23 -10 -23 69 2 83 25 170
82 234 152 l50 55 -4 -88 c-3 -62 -1 -94 8 -104 16 -20 133 -21 149 -1 8 10
10 269 9 962 -3 834 -5 949 -18 952 -13 2 -15 -108 -12 -948z"/>
<path d="M2157 1943 c-9 -8 -9 -1886 -1 -1907 5 -12 21 -16 73 -16 39 0 72 5
79 12 9 9 12 93 12 317 0 332 4 366 56 461 74 136 268 234 424 214 314 -40
479 -351 340 -640 -46 -93 -177 -197 -277 -219 -42 -9 -152 -9 -191 0 -31 6
-31 7 -16 31 10 14 14 33 10 48 -6 23 -10 24 -113 28 -60 2 -116 0 -125 -4
-16 -8 -18 -24 -18 -121 0 -116 6 -137 41 -137 9 0 28 10 43 21 26 20 29 21
64 6 46 -20 114 -38 120 -32 11 10 -21 33 -54 40 -20 3 -51 14 -70 23 -33 15
-35 15 -64 -6 -48 -36 -51 -31 -48 79 l3 102 95 -2 c52 -1 97 -5 100 -7 2 -3
-3 -18 -12 -34 -15 -27 -15 -29 3 -46 49 -44 228 -35 331 17 82 42 167 129
210 216 32 67 33 70 33 203 0 132 -1 137 -32 201 -42 85 -99 149 -171 192
-146 88 -300 96 -447 23 -94 -47 -157 -103 -201 -182 -60 -108 -64 -135 -64
-471 l0 -303 -55 0 -55 0 2 950 c3 925 2 970 -25 943z"/>
<path d="M2280 1931 c6 -13 10 -186 10 -492 0 -571 -5 -548 104 -436 141 144
303 192 504 151 159 -33 317 -144 380 -270 87 -173 90 -392 8 -559 -65 -132
-220 -257 -348 -280 -20 -4 -45 -16 -55 -27 -18 -20 -18 -20 17 -13 184 39
332 151 411 310 116 234 74 530 -101 705 -242 243 -654 237 -851 -13 l-39 -49
0 484 c0 494 -1 508 -37 508 -10 0 -11 -5 -3 -19z"/>
<path d="M1633 1690 c-54 -22 -82 -129 -47 -178 59 -84 198 -59 218 39 14 72
-44 150 -112 148 -20 0 -47 -4 -59 -9z m113 -43 c37 -32 39 -95 5 -131 -31
-33 -87 -35 -125 -5 -44 34 -33 129 17 149 38 15 75 11 103 -13z"/>
<path d="M3821 1171 c-90 -34 -158 -99 -187 -178 -7 -21 -13 -74 -14 -119 0
-67 4 -89 26 -132 41 -83 105 -127 282 -196 109 -42 175 -79 201 -113 77 -97
26 -221 -107 -259 -73 -22 -149 -9 -249 42 -86 43 -111 41 -148 -13 -44 -65
-29 -100 65 -148 52 -26 151 -57 159 -50 10 11 -25 32 -80 48 -60 18 -115 51
-133 79 -7 12 -6 24 4 43 26 49 45 50 123 11 95 -48 178 -63 251 -47 201 45
240 269 64 369 -30 17 -97 48 -149 68 -120 46 -144 59 -198 102 -66 53 -84
104 -79 217 3 80 8 98 31 133 35 53 82 88 153 113 107 38 275 14 375 -54 43
-29 45 -39 16 -73 l-25 -28 -71 33 c-101 46 -171 52 -244 18 -38 -17 -65 -39
-86 -67 -45 -63 -49 -99 -16 -166 33 -67 100 -115 228 -165 166 -63 236 -112
269 -185 20 -46 48 -77 48 -53 0 32 -50 117 -88 151 -47 43 -103 73 -217 117
-121 47 -189 93 -215 147 -28 56 -21 101 21 149 65 74 177 83 294 26 75 -37
85 -38 112 -8 69 75 46 115 -99 175 -87 36 -238 42 -317 13z"/>
<path d="M1616 1154 c-14 -14 -16 -78 -16 -558 0 -423 3 -546 13 -560 10 -14
25 -16 82 -14 l70 3 3 559 c1 404 -1 563 -9 572 -17 20 -123 19 -143 -2z m124
-559 l0 -545 -55 0 -55 0 0 538 c0 296 3 542 7 545 3 4 28 7 55 7 l48 0 0
-545z"/>
<path d="M0 494 c0 -6 7 -36 15 -68 38 -144 148 -288 275 -359 62 -34 178 -72
189 -62 10 11 -21 29 -71 42 -126 33 -263 148 -323 274 -20 41 -38 91 -41 111
-6 32 -44 87 -44 62z"/>
<path d="M4308 263 c-8 -10 -18 -30 -21 -44 -16 -65 -119 -161 -189 -176 -15
-3 -35 -14 -45 -25 -18 -20 -18 -20 16 -13 120 26 222 119 252 228 12 45 8 54
-13 30z"/>
</g>
</svg>